<svg xmlns="http://www.w3.org/2000/svg" xmlns:xlink="http://www.w3.org/1999/xlink" width="96" height="31" viewBox="0 0 96 31">
  <defs>
    <clipPath id="clip-poweredBy">
      <rect width="96" height="31"/>
    </clipPath>
  </defs>
  <g id="poweredBy" clip-path="url(#clip-poweredBy)">
    <g id="Group_1163" data-name="Group 1163" transform="translate(-166.194 186.525)">
      <g id="Group_1162" data-name="Group 1162" transform="translate(166.194 -185.472)">
        <path id="Path_803" data-name="Path 803" d="M484.245-152.742a14.554,14.554,0,0,1-14.509-14.534,14.563,14.563,0,0,1,14.571-14.477,14.563,14.563,0,0,1,14.452,14.483A14.552,14.552,0,0,1,484.245-152.742Zm7.835-14.506v0c-.845,0-1.694.049-2.534-.014s-1.245.092-1.22,1.094c.022.9.239,1.231,1.169,1.155.985-.082,1.985.02,2.974-.031.7-.036.812.186.585.8a9.579,9.579,0,0,1-4.584,5.281,1.277,1.277,0,0,1-1.8-.262q-5.172-5.268-10.442-10.441a1.3,1.3,0,0,1-.276-1.8,9.275,9.275,0,0,1,15.363-1.78c.591.661.875.433,1.37-.011.479-.43.85-.707.237-1.378A11.075,11.075,0,0,0,482-178.367a11.072,11.072,0,0,0-8.64,7.8,1.133,1.133,0,0,0,.361,1.345q6.292,6.253,12.551,12.539a1.1,1.1,0,0,0,1.252.346,11.5,11.5,0,0,0,8.083-10.235c.02-.565-.143-.7-.658-.683C493.991-167.227,493.035-167.248,492.08-167.248Zm-9.13,11.279c.244-.06.618.224.757-.121.1-.245-.248-.409-.419-.581q-4.818-4.832-9.653-9.647c-.167-.166-.318-.518-.59-.382-.251.125-.094.462-.08.7C473.25-161.036,477.951-156.309,482.95-155.968Z" transform="translate(-402.759 181.753)" fill="#754d9f"/>
        <path id="Path_804" data-name="Path 804" d="M191.405-176.776a13.435,13.435,0,0,1-.389,3.045.919.919,0,0,0,.749,1.288,11.426,11.426,0,0,1,3.9,1.989c2.151,1.7,2.163,4.159.025,5.858a10.76,10.76,0,0,1-3.793,1.958c-.91.256-1.038.71-.849,1.523a10.074,10.074,0,0,1,.174,4.353c-.55,2.711-2.622,3.834-5.178,2.732a9.439,9.439,0,0,1-3.216-2.082c-.793-.842-1.4-.744-2.164.006a10.226,10.226,0,0,1-3.326,2.118c-2.5,1.036-4.541-.119-5.083-2.781a10.082,10.082,0,0,1,.163-4.248c.206-.932.018-1.394-.95-1.665a10.323,10.323,0,0,1-3.774-1.992,3.443,3.443,0,0,1,.047-5.717,10.962,10.962,0,0,1,3.885-2.022c.858-.237.982-.684.819-1.445a10.692,10.692,0,0,1-.181-4.465c.514-2.49,2.291-3.587,4.709-2.823a9.824,9.824,0,0,1,3.9,2.409c.643.627,1.116.591,1.749-.012a10.009,10.009,0,0,1,4.011-2.44,3.294,3.294,0,0,1,4.513,2.566A5.141,5.141,0,0,1,191.405-176.776Zm-10.033,14.253c3.227,0,3.122-.071,4.734-2.426a4.032,4.032,0,0,0-.019-5.166c-1.585-2.315-1.476-2.389-4.282-2.391-3,0-2.875.079-4.507,2.57a4.024,4.024,0,0,0,0,4.881C178.372-163.253,179.4-161.892,181.373-162.523Zm-13.782-5.01a2.411,2.411,0,0,0,1.2,1.989,12.576,12.576,0,0,0,3.428,1.706c.624.223.92.141,1.124-.522.269-.872.633-1.715.981-2.561a1.331,1.331,0,0,0,.056-1.059c-.378-.952-.752-1.905-1.107-2.866-.151-.41-.342-.593-.814-.423a12.785,12.785,0,0,0-3.732,1.828A2.381,2.381,0,0,0,167.591-167.533Zm28.3.051a2.492,2.492,0,0,0-1.27-2.061,13.808,13.808,0,0,0-3.441-1.677c-.644-.251-.822.013-1,.548-.282.83-.618,1.643-.966,2.448a1.464,1.464,0,0,0-.074,1.259q.588,1.358,1.1,2.749c.146.4.275.628.775.461a12.1,12.1,0,0,0,3.815-1.895A2.3,2.3,0,0,0,195.894-167.483Zm-5.95,8.681c-.016-.286-.022-.765-.074-1.239-.212-1.9-.222-1.932-2.092-1.584-1.211.225-2.427.158-3.35,1.457-1.828,2.572-1.955,2.511.778,4.169,1.1.665,2.3,1.444,3.6.743S189.928-157.362,189.944-158.8Zm-13.882-21.187a2.112,2.112,0,0,0-2.468,2.107,12.716,12.716,0,0,0,.231,4.044c.109.509.3.748.906.6.815-.194,1.661-.261,2.493-.384a1.9,1.9,0,0,0,1.409-.727c.533-.742,1.136-1.435,1.711-2.147.181-.225.477-.47.173-.75C179.139-178.511,177.721-179.727,176.062-179.988Zm13.849,3.563c0-.44.035-.883-.006-1.319-.187-1.974-1.49-2.757-3.319-2.006a10.689,10.689,0,0,0-3.342,2.28c-.27.26-.525.468-.183.908,1.331,1.71,2.6,3.483,5.164,3.215a.982.982,0,0,1,.431.074c.634.24.933.059,1.036-.643A12.108,12.108,0,0,0,189.911-176.425Zm-16.353,17.987c0,.292-.018.623,0,.952.142,2.2,1.541,3.022,3.563,2.1a10.059,10.059,0,0,0,2.489-1.6c1.143-1,1.146-.995.146-2.21a7.441,7.441,0,0,1-.881-1.121,2.274,2.274,0,0,0-2.083-1.156,11.162,11.162,0,0,1-2.056-.329c-.6-.159-.818.078-.909.6A10.626,10.626,0,0,0,173.559-158.438Zm8.471-2.75c-.515,0-.956,0-1.4,0-.229,0-.553.091-.382.344a5.7,5.7,0,0,0,1.411,1.646c.382.249.649-.441.9-.766.279-.358.936-.684.725-1.1C183.1-161.427,182.415-161.112,182.029-161.188Zm-1.79-13.17c-.04.531.215.51.427.515.477.01.956.028,1.43-.005.421-.03,1.039.242,1.213-.146s-.429-.685-.694-1.015-.413-.8-.913-.887A15.045,15.045,0,0,0,180.239-174.359Zm-3.725,2.15c-.508.109-1.074.231-1.641.351-.233.049-.451.156-.38.424.184.692.252,1.615.851,1.9.411.2.571-.761.876-1.178.235-.321.42-.679.64-1.012C177.1-172.089,177.016-172.25,176.514-172.208Zm10.681.044c-.572-.1-.748.071-.469.57.373.667.754,1.33,1.13,2,.139.246.233.476.5.058C189.437-171.269,189.123-171.976,187.195-172.164Zm-10.247,9.042c-.223-.37-.445-.794-.72-1.18-.3-.425-.34-1.286-.908-1.2-.47.071-.438.922-.677,1.4-.316.64-.1.952.568,1.049.434.062.863.166,1.3.215C176.675-162.814,176.985-162.661,176.947-163.122Zm10.125.278c.411-.089.945-.206,1.479-.32.266-.057.541-.143.422-.487-.225-.648-.23-1.613-.8-1.827-.467-.177-.646.8-.967,1.255-.21.3-.382.621-.571.932C186.409-162.913,186.506-162.752,187.073-162.843Z" transform="translate(-166.194 181.475)" fill="#66dafa"/>
        <path id="Path_805" data-name="Path 805" d="M504.552-156.2c.955,0,1.911.02,2.865-.008.516-.015.678.118.658.683a11.5,11.5,0,0,1-8.083,10.235,1.1,1.1,0,0,1-1.252-.346q-6.261-6.285-12.551-12.539a1.133,1.133,0,0,1-.361-1.345,11.072,11.072,0,0,1,8.64-7.8,11.075,11.075,0,0,1,10.923,3.741c.613.671.243.947-.236,1.378-.495.444-.779.672-1.37.011a9.275,9.275,0,0,0-15.363,1.78,1.3,1.3,0,0,0,.276,1.8q5.268,5.172,10.442,10.441a1.278,1.278,0,0,0,1.8.262,9.579,9.579,0,0,0,4.584-5.281c.228-.618.112-.84-.584-.8-.989.051-1.989-.051-2.974.031-.929.077-1.146-.25-1.168-1.155-.025-1,.377-1.157,1.22-1.094s1.689.014,2.534.014Z" transform="translate(-415.232 170.703)" fill="#fdfdfe"/>
        <path id="Path_806" data-name="Path 806" d="M494.136-102.9c-5-.341-9.7-5.067-9.985-10.028-.014-.24-.171-.577.08-.7.273-.136.423.216.59.382q4.836,4.814,9.653,9.647c.171.172.518.336.419.581C494.755-102.679,494.38-102.962,494.136-102.9Z" transform="translate(-413.946 128.687)" fill="#fdfdfe"/>
        <path id="Path_807" data-name="Path 807" d="M226.6-125.518a2.82,2.82,0,0,1-2.785-2.816,2.837,2.837,0,0,1,2.883-2.727,2.824,2.824,0,0,1,2.78,2.823A2.818,2.818,0,0,1,226.6-125.518Z" transform="translate(-211.101 142.247)" fill="#66dafa"/>
      </g>
      <path id="Path_808" data-name="Path 808" d="M339.041-158.852a2.8,2.8,0,0,1-2.687,3,2.668,2.668,0,0,1-2.746-2.7,1.288,1.288,0,0,0-.818-1.338q-2.353-1.316-4.67-2.7a1.059,1.059,0,0,0-1.277-.01,2.661,2.661,0,0,1-3.807-.938,2.666,2.666,0,0,1,1.116-3.759,1.015,1.015,0,0,0,.6-1.026q-.039-2.862,0-5.726a1,1,0,0,0-.6-1.026,2.665,2.665,0,0,1-1.138-3.752,2.682,2.682,0,0,1,3.894-.912.887.887,0,0,0,1.075.022c1.675-.987,3.355-1.966,5.051-2.915a.983.983,0,0,0,.554-1.04,2.729,2.729,0,0,1,2.715-2.858,2.7,2.7,0,0,1,2.708,2.855,1,1,0,0,0,.637,1.089q2.449,1.369,4.858,2.81a1.046,1.046,0,0,0,1.272-.007,2.678,2.678,0,0,1,3.809.941,2.623,2.623,0,0,1-1.024,3.7,1.231,1.231,0,0,0-.708,1.3c.027,1.835.023,3.671,0,5.505a1.013,1.013,0,0,0,.585,1.035,2.669,2.669,0,0,1,1.1,3.841,2.692,2.692,0,0,1-3.93.767.837.837,0,0,0-1.06-.024c-1.641.971-3.3,1.919-4.956,2.86C339.151-159.6,338.735-159.367,339.041-158.852Zm-.461-22.756a1.074,1.074,0,0,0-.2-.089c-.073.105.006.156.1.194,2.413,4.532,5.106,8.9,7.638,13.368.066.116.19.3.263.294.26-.038.148-.284.148-.435.01-1.983,0-3.966.016-5.948a.816.816,0,0,0-.545-.829,2.61,2.61,0,0,1-1.5-2.6.812.812,0,0,0-.448-.89C342.217-179.551,340.4-180.586,338.581-181.608Zm-4.54,0c-1.848,1.039-3.692,2.086-5.549,3.111-.364.2-.377.474-.363.824a2.572,2.572,0,0,1-1.484,2.6.945.945,0,0,0-.565,1.039c.015,1.832,0,3.663.01,5.495,0,.243.03.685.094.694.319.045.332-.309.45-.508q1.065-1.794,2.1-3.6,2.717-4.765,5.42-9.538c.089-.042.17-.1.094-.2C334.239-181.712,334.113-181.642,334.04-181.61Zm2.288,16.082c2.459,0,4.919.007,7.378,0a1.334,1.334,0,0,0,1.182-2.082q-3.649-6.337-7.31-12.666c-.707-1.222-1.833-1.207-2.55.033q-3.633,6.283-7.259,12.569a1.354,1.354,0,0,0,1.292,2.148Q332.694-165.523,336.328-165.529Zm.1,1.279c-2.531,0-5.063,0-7.594.005-.2,0-.468-.12-.564.146-.02.054.241.234.392.322,1.711.994,3.431,1.971,5.134,2.98a.8.8,0,0,0,.986-.042,2.578,2.578,0,0,1,3.087.023.856.856,0,0,0,1.079.03c1.671-.989,3.363-1.944,5.041-2.921.171-.1.5-.159.408-.414-.081-.234-.388-.125-.595-.125Q340.116-164.255,336.43-164.25Z" transform="translate(-121.931)" fill="#e00898"/>
    </g>
  </g>
</svg>
